{"title":"The Forger 2015 720p HDRip HC x264 Sherif","uid":11789373,"size":741915323,"categoryP":"video","categoryS":"movies","magnet":"?xt=urn:btih:652ce57557d8e3a227885e1361fa55a900ebfb92&amp;dn=The+Forger+2015+720p+HDRip+HC+x264+Sherif&amp;tr=udp%3A%2F%2Ftracker.openbittorrent.com%3A80&amp;tr=udp%3A%2F%2Fopen.demonii.com%3A1337&amp;tr=udp%3A%2F%2Ftracker.coppersurfer.tk%3A6969&amp;tr=udp%3A%2F%2Fexodus.desync.com%3A6969","seeders":11,"leechers":5,"uploader":"shawnmurthy","files":1,"time":1427878546,"description":"SHERIFS ENCODE...I AM JUST SHARING IT.....HAS ARABIC SUBS\n\nSCREENSHOTS GO HERE...http://pimp4003DOTnet/torrents.php?id=652ce57557d8e3a227885e1361fa55a900ebfb92\n\n[color=blue][b]I am looking for: Pre-Retail Supplier Unreleased DVD/BluRay/Web-Dls/R5/CAM/TS If you have something to offer, please contact ME: &lt;a class=&quot;__cf_email__&quot; href=&quot;/cdn-cgi/l/email-protection&quot; data-cfemail=&quot;e5958c8895d1d5d5d6a58d90968d88848c89cb868a88cb&quot;&gt;[email&amp;#160;protected]&lt;/a&gt;&lt;script cf-hash='f9e31' type=&quot;text/javascript&quot;&gt;\n/* &lt;![CDATA[ */!function(){try{var t=&quot;currentScript&quot;in document?document.currentScript:function(){for(var t=document.getElementsByTagName(&quot;script&quot;),e=t.length;e--;)if(t[e].getAttribute(&quot;cf-hash&quot;))return t[e]}();if(t&amp;&amp;t.previousSibling){var e,r,n,i,c=t.previousSibling,a=c.getAttribute(&quot;data-cfemail&quot;);if(a){for(e=&quot;&quot;,r=parseInt(a.substr(0,2),16),n=2;a.length-n;n+=2)i=parseInt(a.substr(n,2),16)^r,e+=String.fromCharCode(i);e=document.createTextNode(e),c.parentNode.replaceChild(e,c)}}}catch(u){}}();/* ]]&gt; */&lt;/script&gt; WE CAN WORK OUT A GREAT DEAL THAT WORKS OUT FOR EVERY PARTY. I ALSO NEED NEW CAMMERS...EMAIL ME[/b][/color]\n &lt;a href=&quot;\nhttp://i.imgur.com/J3ny9bJ.jpg&quot; rel=&quot;nofollow&quot; target=&quot;_NEW&quot;&gt;\nhttp://i.imgur.com/J3ny9bJ.jpg&lt;/a&gt;\n &lt;a href=&quot;\nhttp://i.imgur.com/SpsuXOR.png&quot; rel=&quot;nofollow&quot; target=&quot;_NEW&quot;&gt;\nhttp://i.imgur.com/SpsuXOR.png&lt;/a&gt;\n\nPIMP THE ONE AND ONLY PIMPSTER.....PRESENTS\n\nfacebookDOTcom/OfficialPimp4003\n &lt;a href=&quot;\nhttp://i.imgur.com/dm8LUW9.jpg&quot; rel=&quot;nofollow&quot; target=&quot;_NEW&quot;&gt;\nhttp://i.imgur.com/dm8LUW9.jpg&lt;/a&gt;\n\nThe Forger 2015 720p HDRip HC x264 Sherif\n &lt;a href=&quot;\nhttp://www.imdb.com/title/tt2376218/&quot; rel=&quot;nofollow&quot; target=&quot;_NEW&quot;&gt;\nhttp://www.imdb.com/title/tt2376218/&lt;/a&gt;\n\nA thief (John Travolta) works with his father (Christopher Plummer) and son to forge a painting by Monet and steal the original. Together, they plan the heist of their lives.\n\nDirector: Philip Martin\n\nWriter: Richard D'Ovidio\n\nStars: John Travolta, Abigail Spencer, Christopher Plummer | See full cast and crew Â»\n\nVideo\n\nID : 1\n\nFormat : AVC\n\nFormat/Info : Advanced Video Codec\n\nFormat profile : &lt;a class=&quot;__cf_email__&quot; href=&quot;/cdn-cgi/l/email-protection&quot; data-cfemail=&quot;3078595758707c031e01&quot;&gt;[email&amp;#160;protected]&lt;/a&gt;&lt;script cf-hash='f9e31' type=&quot;text/javascript&quot;&gt;\n/* &lt;![CDATA[ */!function(){try{var t=&quot;currentScript&quot;in document?document.currentScript:function(){for(var t=document.getElementsByTagName(&quot;script&quot;),e=t.length;e--;)if(t[e].getAttribute(&quot;cf-hash&quot;))return t[e]}();if(t&amp;&amp;t.previousSibling){var e,r,n,i,c=t.previousSibling,a=c.getAttribute(&quot;data-cfemail&quot;);if(a){for(e=&quot;&quot;,r=parseInt(a.substr(0,2),16),n=2;a.length-n;n+=2)i=parseInt(a.substr(n,2),16)^r,e+=String.fromCharCode(i);e=document.createTextNode(e),c.parentNode.replaceChild(e,c)}}}catch(u){}}();/* ]]&gt; */&lt;/script&gt;\n\nFormat settings, CABAC : Yes\n\nFormat settings, ReFrames : 4 frames\n\nCodec ID : avc1\n\nCodec ID/Info : Advanced Video Coding\n\nDuration : 1h 35mn\n\nBit rate : 980 Kbps\n\nMaximum bit rate : 5 328 Kbps\n\nWidth : 1 280 pixels\n\nHeight : 720 pixels\n\nDisplay aspect ratio : 16:9\n\nFrame rate mode : Constant\n\nFrame rate : 29.970 fps\n\nColor space : YUV\n\nChroma subsampling : 4:2:0\n\nBit depth : 8 bits\n\nScan type : Progressive\n\nBits/(Pixel*Frame) : 0.035\n\nStream size : 674 MiB (95%)\n\nTitle : Video\n\nWriting library : x264 core 93 r1542 5b86182\n\nEncoding settings : cabac=1 / ref=1 / deblock=1:0:0 / analyse=0x3:0x113 / me=hex / subme=2 / psy=1 / psy_rd=0.00:0.00 / mixed_ref=0 / me_range=16 / chroma_me=1 / trellis=0 / 8x8dct=1 / cqm=0 / deadzone=21,11 / fast_pskip=1 / chroma_qp_offset=0 / threads=48 / sliced_threads=0 / nr=0 / decimate=1 / interlaced=0 / constrained_intra=0 / bframes=3 / b_pyramid=2 / b_adapt=1 / b_bias=0 / direct=1 / wpredb=1 / wpredp=0 / keyint=250 / keyint_min=25 / scenecut=40 / intra_refresh=0 / rc=abr / mbtree=0 / bitrate=980 / ratetol=1.0 / qcomp=0.60 / qpmin=10 / qpmax=51 / qpstep=4 / ip_ratio=1.40 / pb_ratio=1.30 / aq=1:1.00\n\nEncoded date : UTC 2015-03-30 11:54:57\n\nTagged date : UTC 2015-03-30 11:55:19\n\nAudio\n\nID : 2\n\nFormat : AAC\n\nFormat/Info : Advanced Audio Codec\n\nFormat profile : HE-AAC / LC\n\nCodec ID : 40\n\nDuration : 1h 35mn\n\nBit rate mode : Variable\n\nBit rate : 45.6 Kbps\n\nMaximum bit rate : 53.8 Kbps\n\nChannel(s) : 2 channels\n\nChannel positions : Front: L R\n\nSampling rate : 44.1 KHz / 22.05 KHz\n\nCompression mode : Lossy\n\nStream size : 31.0 MiB (4%)\n\nLanguage : English\n\nEncoded date : UTC 2015-03-30 11:55:17\n\nTagged date : UTC 2015-03-30 11:55:19\n &lt;a href=&quot;\nhttp://i.imgur.com/7P5oe8E.png&quot; rel=&quot;nofollow&quot; target=&quot;_NEW&quot;&gt;\nhttp://i.imgur.com/7P5oe8E.png&lt;/a&gt; &lt;a href=&quot;\nhttp://i.imgur.com/s0yWW5b.png&quot; rel=&quot;nofollow&quot; target=&quot;_NEW&quot;&gt;\nhttp://i.imgur.com/s0yWW5b.png&lt;/a&gt; &lt;a href=&quot;\nhttp://i.imgur.com/ZkuR0jk.png&quot; rel=&quot;nofollow&quot; target=&quot;_NEW&quot;&gt;\nhttp://i.imgur.com/ZkuR0jk.png&lt;/a&gt;","torrent":{"xt":"urn:btih:652ce57557d8e3a227885e1361fa55a900ebfb92","amp;dn":"The+Forger+2015+720p+HDRip+HC+x264+Sherif","amp;tr":["udp%3A%2F%2Ftracker.openbittorrent.com%3A80","udp%3A%2F%2Fopen.demonii.com%3A1337","udp%3A%2F%2Ftracker.coppersurfer.tk%3A6969","udp%3A%2F%2Fexodus.desync.com%3A6969"],"infoHash":"652ce57557d8e3a227885e1361fa55a900ebfb92","infoHashBuffer":{"type":"Buffer","data":[101,44,229,117,87,216,227,162,39,136,94,19,97,250,85,169,0,235,251,146]},"announce":[],"urlList":[]}}